<svg width="50" height="51" viewBox="0 0 50 51" fill="none" xmlns="http://www.w3.org/2000/svg">
<path fill-rule="evenodd" clip-rule="evenodd" d="M25.0004 0.768067H24.9168H24.9167C20.8528 0.768057 17.6897 0.768049 15.1571 0.985982C12.585 1.20731 10.5011 1.6632 8.64116 2.67131C5.95749 4.12593 3.75435 6.32907 2.29973 9.01275C1.29064 10.8744 0.835365 12.97 0.614297 15.56C0.396468 18.1121 0.396475 21.3048 0.396485 25.4092V25.4092V25.4924V25.5757V25.5757C0.396475 29.6801 0.396468 32.8728 0.614297 35.4248C0.835365 38.0148 1.29064 40.1104 2.29973 41.9721C3.75435 44.6558 5.95749 46.8589 8.64116 48.3135C10.5011 49.3217 12.585 49.7775 15.1571 49.9989C17.6897 50.2168 20.8528 50.2168 24.9168 50.2168H25.0004H25.084C29.1479 50.2168 32.311 50.2168 34.8436 49.9989C37.4157 49.7775 39.4997 49.3217 41.3596 48.3135C44.0432 46.8589 46.2464 44.6558 47.701 41.9721C48.7101 40.1104 49.1654 38.0148 49.3864 35.4248C49.6043 32.8728 49.6043 29.6801 49.6042 25.5756V25.4924V25.4092C49.6043 21.3048 49.6043 18.1121 49.3864 15.56C49.1654 12.97 48.7101 10.8744 47.701 9.01275C46.2464 6.32907 44.0432 4.12593 41.3596 2.67131C39.4997 1.6632 37.4157 1.20731 34.8436 0.985982C32.311 0.768049 29.1479 0.768057 25.084 0.768067H25.084H25.0004ZM38.7127 16.3027C38.7127 18.8404 36.6663 20.8976 34.1419 20.8976C31.6175 20.8976 29.5711 18.8404 29.5711 16.3027C29.5711 13.765 31.6175 11.7078 34.1419 11.7078C36.6663 11.7078 38.7127 13.765 38.7127 16.3027ZM44.901 36.7392C45.0204 36.8592 45.0752 37.0297 45.0445 37.1962C44.8272 38.3756 44.522 39.2661 44.11 40.0262C43.0325 42.0142 41.4005 43.6461 39.4126 44.7236C38.2511 45.3532 36.7971 45.7322 34.4924 45.9305C32.1581 46.1314 29.1746 46.1334 24.9992 46.1334C20.8239 46.1334 17.8403 46.1314 15.5061 45.9305C13.2013 45.7322 11.7474 45.3532 10.5858 44.7236C8.59794 43.6461 6.96599 42.0142 5.88849 40.0262C5.86787 39.9882 5.85757 39.9692 5.7988 39.8083C5.57561 39.197 5.72711 38.1451 6.11371 37.6216C6.21549 37.4838 6.2931 37.4058 6.44828 37.2498L6.44834 37.2498L11.624 32.0468C14.7 28.9546 16.2381 27.4084 18.158 27.3942C20.078 27.3801 21.6387 28.9033 24.76 31.9498L24.76 31.9498L29.6839 36.7555C30.2366 37.2949 31.1207 37.2884 31.6654 36.7409C34.7843 33.6055 36.3438 32.0378 38.284 32.0378C40.2242 32.0378 41.7831 33.6049 44.901 36.7392Z" fill="#BDBDBD"/>
</svg>
