<svg width="22" height="22" viewBox="0 0 22 22" fill="none" xmlns="http://www.w3.org/2000/svg">
<path fill-rule="evenodd" clip-rule="evenodd" d="M0.25 11C0.25 5.06294 5.06294 0.25 11 0.25C16.9371 0.25 21.75 5.06294 21.75 11C21.75 16.9371 16.9371 21.75 11 21.75C5.06294 21.75 0.25 16.9371 0.25 11ZM10.5303 8.53033C10.8232 8.23744 10.8232 7.76257 10.5303 7.46967C10.2374 7.17678 9.76257 7.17678 9.46967 7.46967L6.46967 10.4696C6.32902 10.6103 6.25 10.8011 6.25 11C6.25 11.1989 6.32902 11.3896 6.46967 11.5303L9.46967 14.5303C9.76256 14.8232 10.2374 14.8232 10.5303 14.5303C10.8232 14.2374 10.8232 13.7625 10.5303 13.4696L8.81066 11.75H15C15.4142 11.75 15.75 11.4142 15.75 11C15.75 10.5858 15.4142 10.25 15 10.25H8.81067L10.5303 8.53033Z" fill="#BDBDBD"/>
</svg>
