<svg width="195" height="24" viewBox="0 0 195 24" fill="none" xmlns="http://www.w3.org/2000/svg">
<path d="M0.59375 0.601562H7.70312C10.9427 0.601562 13.2917 1.0651 14.75 1.99219C16.2188 2.90885 16.9531 4.3724 16.9531 6.38281C16.9531 7.7474 16.6302 8.86719 15.9844 9.74219C15.349 10.6172 14.5 11.1432 13.4375 11.3203V11.4766C14.8854 11.7995 15.9271 12.4036 16.5625 13.2891C17.2083 14.1745 17.5312 15.3516 17.5312 16.8203C17.5312 18.9036 16.776 20.5286 15.2656 21.6953C13.7656 22.862 11.724 23.4453 9.14062 23.4453H0.59375V0.601562ZM5.4375 9.64844H8.25C9.5625 9.64844 10.5104 9.44531 11.0938 9.03906C11.6875 8.63281 11.9844 7.96094 11.9844 7.02344C11.9844 6.14844 11.6615 5.52344 11.0156 5.14844C10.3802 4.76302 9.36979 4.57031 7.98438 4.57031H5.4375V9.64844ZM5.4375 13.4922V19.4453H8.59375C9.92708 19.4453 10.9115 19.1901 11.5469 18.6797C12.1823 18.1693 12.5 17.388 12.5 16.3359C12.5 14.4401 11.1458 13.4922 8.4375 13.4922H5.4375Z" fill="#054586"/>
<path d="M36.0781 23.4453L34.4219 18.0078H26.0938L24.4375 23.4453H19.2188L27.2812 0.507812H33.2031L41.2969 23.4453H36.0781ZM33.2656 13.9453C31.7344 9.01823 30.8698 6.23177 30.6719 5.58594C30.4844 4.9401 30.349 4.42969 30.2656 4.05469C29.9219 5.38802 28.9375 8.6849 27.3125 13.9453H33.2656Z" fill="#054586"/>
<path d="M63.1406 11.8047C63.1406 15.5651 62.0677 18.4453 59.9219 20.4453C57.7865 22.4453 54.6979 23.4453 50.6562 23.4453H44.1875V0.601562H51.3594C55.0885 0.601562 57.9844 1.58594 60.0469 3.55469C62.1094 5.52344 63.1406 8.27344 63.1406 11.8047ZM58.1094 11.9297C58.1094 7.02344 55.9427 4.57031 51.6094 4.57031H49.0312V19.4453H51.1094C55.776 19.4453 58.1094 16.9401 58.1094 11.9297Z" fill="#054586"/>
<path d="M81.8594 23.4453L80.2031 18.0078H71.875L70.2188 23.4453H65L73.0625 0.507812H78.9844L87.0781 23.4453H81.8594ZM79.0469 13.9453C77.5156 9.01823 76.651 6.23177 76.4531 5.58594C76.2656 4.9401 76.1302 4.42969 76.0469 4.05469C75.7031 5.38802 74.7188 8.6849 73.0938 13.9453H79.0469Z" fill="#054586"/>
<path d="M110.234 23.4453H104.078L94.1406 6.16406H94C94.1979 9.21615 94.2969 11.3932 94.2969 12.6953V23.4453H89.9688V0.601562H96.0781L106 17.7109H106.109C105.953 14.7422 105.875 12.6432 105.875 11.4141V0.601562H110.234V23.4453Z" fill="#054586"/>
<path d="M129.266 11.3516H130.859C132.349 11.3516 133.464 11.0599 134.203 10.4766C134.943 9.88281 135.312 9.02344 135.312 7.89844C135.312 6.76302 135 5.92448 134.375 5.38281C133.76 4.84115 132.792 4.57031 131.469 4.57031H129.266V11.3516ZM140.203 7.72656C140.203 10.1849 139.432 12.0651 137.891 13.3672C136.359 14.6693 134.177 15.3203 131.344 15.3203H129.266V23.4453H124.422V0.601562H131.719C134.49 0.601562 136.594 1.20052 138.031 2.39844C139.479 3.58594 140.203 5.36198 140.203 7.72656Z" fill="#009B4C"/>
<path d="M165.25 11.9922C165.25 15.7734 164.312 18.6797 162.438 20.7109C160.562 22.7422 157.875 23.7578 154.375 23.7578C150.875 23.7578 148.188 22.7422 146.312 20.7109C144.438 18.6797 143.5 15.763 143.5 11.9609C143.5 8.15885 144.438 5.25781 146.312 3.25781C148.198 1.2474 150.896 0.242188 154.406 0.242188C157.917 0.242188 160.599 1.2526 162.453 3.27344C164.318 5.29427 165.25 8.20052 165.25 11.9922ZM148.578 11.9922C148.578 14.5443 149.062 16.4661 150.031 17.7578C151 19.0495 152.448 19.6953 154.375 19.6953C158.24 19.6953 160.172 17.1276 160.172 11.9922C160.172 6.84635 158.25 4.27344 154.406 4.27344C152.479 4.27344 151.026 4.92448 150.047 6.22656C149.068 7.51823 148.578 9.4401 148.578 11.9922Z" fill="#009B4C"/>
<path d="M179.656 23.4453L174.156 5.52344H174.016C174.214 9.16927 174.312 11.6016 174.312 12.8203V23.4453H169.984V0.601562H176.578L181.984 18.0703H182.078L187.812 0.601562H194.406V23.4453H189.891V12.6328C189.891 12.1224 189.896 11.5339 189.906 10.8672C189.927 10.2005 190 8.42969 190.125 5.55469H189.984L184.094 23.4453H179.656Z" fill="#009B4C"/>
</svg>
