<svg width="18" height="18" viewBox="0 0 18 18" fill="none" xmlns="http://www.w3.org/2000/svg">
<path d="M6.22317 9.00047C6.22317 7.46649 7.46637 6.22262 9.00034 6.22262C10.5343 6.22262 11.7782 7.46649 11.7782 9.00047C11.7782 10.5344 10.5343 11.7783 9.00034 11.7783C7.46637 11.7783 6.22317 10.5344 6.22317 9.00047ZM4.72151 9.00047C4.72151 11.3637 6.63712 13.2793 9.00034 13.2793C11.3636 13.2793 13.2792 11.3637 13.2792 9.00047C13.2792 6.63724 11.3636 4.72163 9.00034 4.72163C6.63712 4.72163 4.72151 6.63724 4.72151 9.00047ZM12.4486 4.55201C12.4486 5.10394 12.8962 5.55222 13.4488 5.55222C14.0007 5.55222 14.449 5.10394 14.449 4.55201C14.449 4.00007 14.0014 3.55247 13.4488 3.55247C12.8962 3.55247 12.4486 4.00007 12.4486 4.55201ZM5.63354 15.7832C4.82112 15.7462 4.37958 15.6109 4.08611 15.4965C3.69706 15.345 3.41975 15.1646 3.12763 14.8732C2.83618 14.5817 2.65512 14.3044 2.50434 13.9154C2.38992 13.6219 2.25463 13.1804 2.21761 12.3679C2.17722 11.4896 2.16915 11.2257 2.16915 9.00047C2.16915 6.77523 2.1779 6.51205 2.21761 5.63299C2.25463 4.82057 2.39059 4.3797 2.50434 4.08556C2.65579 3.69651 2.83618 3.4192 3.12763 3.12708C3.41907 2.83563 3.69639 2.65457 4.08611 2.50379C4.37958 2.38937 4.82112 2.25408 5.63354 2.21706C6.51193 2.17667 6.77578 2.16859 9.00034 2.16859C11.2256 2.16859 11.4888 2.17734 12.3678 2.21706C13.1802 2.25408 13.6211 2.39004 13.9152 2.50379C14.3043 2.65457 14.5816 2.83563 14.8737 3.12708C15.1652 3.41852 15.3456 3.69651 15.497 4.08556C15.6114 4.37902 15.7467 4.82057 15.7837 5.63299C15.8241 6.51205 15.8322 6.77523 15.8322 9.00047C15.8322 11.225 15.8241 11.4889 15.7837 12.3679C15.7467 13.1804 15.6108 13.6219 15.497 13.9154C15.3456 14.3044 15.1652 14.5817 14.8737 14.8732C14.5823 15.1646 14.3043 15.345 13.9152 15.4965C13.6218 15.6109 13.1802 15.7462 12.3678 15.7832C11.4894 15.8236 11.2256 15.8317 9.00034 15.8317C6.77578 15.8317 6.51193 15.8236 5.63354 15.7832V15.7832ZM5.56489 0.718084C4.67775 0.75847 4.07197 0.899146 3.54225 1.10511C2.99435 1.31781 2.52992 1.6032 2.06616 2.06629C1.60308 2.52937 1.31769 2.9938 1.10499 3.54237C0.899024 4.0721 0.758348 4.67788 0.717962 5.56501C0.676904 6.45349 0.66748 6.73753 0.66748 9.00047C0.66748 11.2634 0.676904 11.5474 0.717962 12.4359C0.758348 13.3231 0.899024 13.9288 1.10499 14.4586C1.31769 15.0065 1.6024 15.4716 2.06616 15.9346C2.52925 16.3977 2.99368 16.6824 3.54225 16.8958C4.07265 17.1018 4.67775 17.2425 5.56489 17.2828C6.45404 17.3232 6.73741 17.3333 9.00034 17.3333C11.2639 17.3333 11.5473 17.3239 12.4358 17.2828C13.3229 17.2425 13.9287 17.1018 14.4584 16.8958C15.0063 16.6824 15.4708 16.3977 15.9345 15.9346C16.3976 15.4716 16.6823 15.0065 16.8957 14.4586C17.1017 13.9288 17.243 13.3231 17.2827 12.4359C17.3231 11.5468 17.3325 11.2634 17.3325 9.00047C17.3325 6.73753 17.3231 6.45349 17.2827 5.56501C17.2423 4.67788 17.1017 4.0721 16.8957 3.54237C16.6823 2.99448 16.3976 2.53004 15.9345 2.06629C15.4714 1.6032 15.0063 1.31781 14.4591 1.10511C13.9287 0.899146 13.3229 0.757797 12.4365 0.718084C11.548 0.677699 11.2639 0.667603 9.00102 0.667603C6.73741 0.667603 6.45404 0.677026 5.56489 0.718084" fill="white"/>
</svg>
