<svg width="18" height="13" viewBox="0 0 18 13" fill="none" xmlns="http://www.w3.org/2000/svg">
<path fill-rule="evenodd" clip-rule="evenodd" d="M17.0976 2.76336C16.9024 2.03107 16.3247 1.45345 15.5897 1.25546C14.2608 0.900146 8.92887 0.900146 8.92887 0.900146C8.92887 0.900146 3.59964 0.900146 2.268 1.25546C1.53578 1.45071 0.958088 2.02841 0.760104 2.76336C0.404785 4.09227 0.404785 6.86669 0.404785 6.86669C0.404785 6.86669 0.404785 9.64119 0.760104 10.9701C0.955354 11.7024 1.53305 12.28 2.268 12.478C3.59964 12.8333 8.92887 12.8333 8.92887 12.8333C8.92887 12.8333 14.2608 12.8333 15.5897 12.478C16.322 12.2827 16.8996 11.705 17.0976 10.9701C17.453 9.64119 17.453 6.86676 17.453 6.86676C17.453 6.86676 17.453 4.09227 17.0976 2.76336V2.76336ZM7.22563 9.42414L11.6544 6.86661L7.22563 4.30915V9.42414Z" fill="white"/>
</svg>
