<svg width="22" height="22" viewBox="0 0 22 22" fill="none" xmlns="http://www.w3.org/2000/svg">
<path fill-rule="evenodd" clip-rule="evenodd" d="M0.25 11C0.25 5.06294 5.06294 0.25 11 0.25C16.9371 0.25 21.75 5.06294 21.75 11C21.75 16.9371 16.9371 21.75 11 21.75C5.06294 21.75 0.25 16.9371 0.25 11ZM12.5303 7.46967C12.2374 7.17678 11.7626 7.17678 11.4697 7.46967C11.1768 7.76256 11.1768 8.23744 11.4697 8.53033L13.1893 10.25H7C6.58579 10.25 6.25 10.5858 6.25 11C6.25 11.4142 6.58579 11.75 7 11.75H13.1893L11.4697 13.4697C11.1768 13.7626 11.1768 14.2374 11.4697 14.5303C11.7626 14.8232 12.2374 14.8232 12.5303 14.5303L15.5303 11.5303C15.8232 11.2374 15.8232 10.7626 15.5303 10.4697L12.5303 7.46967Z" fill="#009B4C"/>
</svg>
