<svg width="20" height="20" viewBox="0 0 20 20" fill="none" xmlns="http://www.w3.org/2000/svg">
<path d="M6.89568 17.5C13.1891 17.5 16.6303 12.0485 16.6303 7.32378C16.6303 7.16802 16.6303 7.01226 16.6232 6.86391C17.2902 6.35955 17.872 5.7291 18.3332 5.00964C17.723 5.29149 17.0631 5.48433 16.3678 5.57334C17.0773 5.12831 17.6166 4.43111 17.872 3.59297C17.2121 4.00091 16.4813 4.2976 15.7008 4.46077C15.0765 3.76357 14.1896 3.33337 13.2033 3.33337C11.316 3.33337 9.78343 4.93547 9.78343 6.90842C9.78343 7.19027 9.81181 7.4647 9.87567 7.7243C7.03049 7.57596 4.51169 6.15187 2.82302 3.98608C2.53212 4.51269 2.36184 5.12831 2.36184 5.78102C2.36184 7.01967 2.96493 8.11741 3.88731 8.75528C3.32679 8.74044 2.80174 8.57727 2.34055 8.31025C2.34055 8.32508 2.34055 8.33992 2.34055 8.35475C2.34055 10.0904 3.51836 11.5293 5.0864 11.863C4.80259 11.9446 4.4975 11.9891 4.18531 11.9891C3.96535 11.9891 3.7525 11.9669 3.53964 11.9224C3.97245 13.3465 5.2354 14.3774 6.73249 14.4071C5.56178 15.3639 4.08597 15.935 2.48245 15.935C2.20574 15.935 1.93612 15.9202 1.6665 15.8831C3.16359 16.9067 4.96578 17.5 6.89568 17.5Z" fill="white"/>
</svg>
